<?xml version="1.0" encoding="UTF-8"?>
<svg width="100px" height="100px" viewBox="0 0 100 100" version="1.1" xmlns="http://www.w3.org/2000/svg" xmlns:xlink="http://www.w3.org/1999/xlink">
    <!-- Generator: Sketch 43.2 (39069) - http://www.bohemiancoding.com/sketch -->
    <title>zeppelin</title>
    <desc>Created with Sketch.</desc>
    <defs>
        <circle id="path-1" cx="50" cy="50" r="50"></circle>
    </defs>
    <g id="Page-1" stroke="none" stroke-width="1" fill="none" fill-rule="evenodd">
        <g id="zeppelin">
            <g id="Group">
                <mask id="mask-2" fill="white">
                    <use xlink:href="#path-1"></use>
                </mask>
                <use id="Oval-Copy" fill="#A1B4BB" transform="translate(50.000000, 50.000000) rotate(-180.000000) translate(-50.000000, -50.000000) " xlink:href="#path-1"></use>
            </g>
            <path d="M66.2781964,29.0002328 C59.7530292,28.9749411 52.5197424,31.0139972 48.6216035,33.418427 C47.1645139,34.3171811 45.6693771,35.323441 44.1710415,36.3854683 C44.1710415,36.3854683 30.6506397,46.7960363 26.4497132,52.0352624 C25.8870637,52.7369756 25.374783,53.4934016 24.9284295,54.2902138 C24.8983473,54.347414 24.8662524,54.4051787 24.8367209,54.4628416 C24.7949778,54.5395609 24.7531,54.6174023 24.7126447,54.6948103 C24.7030638,54.7142137 24.6951868,54.7346994 24.6856716,54.7541511 C24.0219192,56.1110337 23.5160919,57.5804092 23.2668864,59.0644529 C23.2647976,59.0769339 23.2635546,59.0897239 23.2615004,59.1022153 C23.2540428,59.1543472 23.2467925,59.2063064 23.2399219,59.2586593 C23.014097,60.9795294 23.1071003,62.8157201 23.8117517,64.3727595 C24.6683501,66.2655515 26.0941809,67.6782964 28.1598165,68.8395053 C30.1518315,69.9593267 33.7971949,70.9110396 33.7971949,70.9110396 L33.7378541,70.9380127 C36.7760043,71.4768843 39.9232448,71.295922 42.9950229,70.9973535 C44.5012476,70.850953 46.008085,70.685175 47.5157149,70.4956538 C47.5167507,70.495678 47.5200824,70.4956296 47.5211009,70.4956538 C47.5313895,70.4958264 47.5640921,70.4954812 47.5750471,70.4956538 C47.4756894,69.9897143 47.3152076,69.0208923 47.5103116,68.9689762 C49.5753551,68.4194827 50.8047606,68.087963 52.4140217,67.5286125 C53.9527832,66.9937665 55.0788986,66.5064415 56.3251216,65.8185178 C56.6365215,65.6466236 56.8830375,65.3601356 57.2098393,65.2197149 C58.2416585,64.77636 59.3904969,64.6724725 60.5005578,64.5022304 C61.3874559,64.3662135 62.2845891,64.2770736 63.1816842,64.2594725 C63.7635661,64.2480618 64.3527364,64.2352942 64.9241467,64.3457864 C65.3618101,64.4304155 65.80449,64.5529934 66.1864879,64.7827507 C66.4419978,64.9364309 66.6789123,65.1444716 66.8446316,65.3923428 C66.9330447,65.5807385 67.0061612,65.779062 67.0766003,65.9749618 C70.3390751,64.7525235 73.6528757,63.2785682 76.1719304,60.8878347 C79.8980717,57.3515047 82.8585945,52.7297702 84.323202,47.8058799 C85.1188404,45.1310113 85.256991,42.1252306 84.5012245,39.4388235 C84.0339848,37.7779968 83.3136657,36.7091144 81.7068111,35.0799701 C78.4197747,31.7473376 73.6311453,29.6863353 68.9809013,29.1512822 C68.1199941,29.0522266 67.2103627,29.0038459 66.2781964,29.0002328 Z M44.1710415,36.3854683 C43.5035,36.8586257 42.8338282,37.343161 42.1696373,37.8366212 L44.1710415,36.3854683 Z M58.2456065,39.530532 C60.3595761,39.5242829 61.5309304,39.8488146 61.5309304,39.8488146 C61.5309304,39.8488146 58.0529935,40.1733878 56.120126,40.5177476 C54.5891551,40.7905048 52.1265618,41.2646617 50.2076219,41.9149543 C46.4659079,43.1829491 42.9064562,44.9558078 39.3914078,46.7593235 C36.6896662,48.1455442 34.1008611,49.7469697 31.5152618,51.3393563 C29.7480877,52.4277008 26.2986638,54.7379673 26.2986638,54.7379673 C26.2986638,54.7379673 29.2382555,50.9393862 37.0555371,46.5489333 C39.2907226,45.2935767 41.5718754,44.1159819 43.9120998,43.0694031 C45.7407829,42.2515924 47.5949459,41.4721207 49.5117159,40.8899764 C50.9679941,40.4476883 52.4707869,40.1413274 53.973067,39.8973662 C55.0676036,39.71962 56.2311533,39.6076829 57.2799694,39.5575051 C57.619632,39.5412609 57.9436113,39.5314245 58.2456065,39.530532 Z M31.4289479,43.155717 C30.7365755,43.159791 30.1428514,43.9724574 29.778194,44.5852915 C29.3109042,45.370598 29.103264,46.7182674 29.0067633,47.7950907 C30.5070651,46.5119116 32.0042475,45.3182452 33.0419394,44.5097668 C32.6410147,43.8362109 32.1387712,43.2538957 31.569208,43.1665063 C31.522217,43.1592904 31.4751069,43.1554408 31.4289479,43.155717 Z M61.6550066,46.5866957 C61.6550066,46.5866957 55.1279146,49.0635498 51.8853489,50.3575354 C48.1499876,51.8481787 44.4264099,53.3760716 40.7292737,54.9591467 C38.1430978,56.0665199 35.5717523,57.2110909 33.0149663,58.3847307 C30.6643567,59.4637291 26.0019596,61.707817 26.0019596,61.707817 C26.0019596,61.707817 29.9721984,58.4529567 37.3360574,55.2342724 C41.6334449,53.355919 44.5312037,51.7102577 49.1556709,50.2010914 C51.3150123,49.4964038 53.4461378,48.7029129 55.6292155,48.0756109 C57.6172963,47.5043405 61.6550066,46.5866957 61.6550066,46.5866957 Z M63.9207473,53.2112897 C63.9207473,53.2112897 63.0045819,54.3022477 60.9591006,55.6550528 C59.9363548,56.331457 59.0396307,57.0406175 58.0352163,57.6618516 C56.7351887,58.4659228 55.400746,59.2140177 54.0270132,59.8844352 C52.3242121,60.7154468 50.5561662,61.4100978 48.7942313,62.1070189 C47.0671017,62.7901712 45.3299562,63.4545986 43.5614494,64.0221092 C41.3794523,64.7223068 39.1762824,65.3701135 36.9368554,65.8562802 C35.3119215,66.2090435 32.0115669,66.6385001 32.0115669,66.6385001 C32.0115669,66.6385001 36.0839961,65.258898 38.1128827,64.5453874 C40.255039,63.7920429 42.2863821,63.0811424 44.5216919,62.2364898 C46.8323641,61.3633605 48.4845732,60.7271889 50.4503798,59.9329868 C52.0577471,59.2835971 53.6761661,58.6558721 55.2461975,57.9207934 C56.4469968,57.3585876 57.6124023,56.7208813 58.7796739,56.092017 C60.5093636,55.1601529 63.9207473,53.2112897 63.9207473,53.2112897 Z M68.6626187,57.4892237 C68.6626187,57.4892237 68.6079923,58.1659163 66.8877885,59.9275922 C66.1932601,60.6388639 64.9695979,61.5567503 64.1904783,62.0368888 C61.1709253,63.8977084 59.5618939,64.3727595 59.5618939,64.3727595 C59.5618939,64.3727595 62.5428835,62.4229866 63.9854827,61.3787451 C64.8349827,60.763824 65.6724504,60.1245761 66.4777974,59.4528656 C67.2298627,58.8255981 68.6626187,57.4892237 68.6626187,57.4892237 Z M22.3498009,63.9357953 C21.3355639,64.3920369 20.1134726,64.9580318 19.3126295,65.3869482 C17.827733,66.1822292 14.9059272,67.5733956 15.0023277,68.0249176 C15.1496829,68.7151062 18.4575364,67.3801405 20.1811634,67.037702 C21.2777974,66.8198302 22.3682738,66.5912001 23.4610927,66.3579799 C23.0201735,65.5869203 22.6368879,64.7750653 22.3498009,63.9357953 Z M62.7824823,65.0416925 C62.3434103,65.0445063 61.8741059,65.0702313 61.3043563,65.133401 C59.5589523,65.3269168 59.0864819,65.482969 57.6899606,65.9371995 C57.1924246,66.099026 56.8988157,66.3592297 56.5085387,66.5737647 C55.8072138,66.9592824 55.1466378,67.4245076 54.4154259,67.749792 C53.3647161,68.2172078 52.2468765,68.5168776 51.1462859,68.8502945 C50.2387726,69.1252217 50.1132411,69.1789711 48.400424,69.5893576 C48.1031157,69.6605924 48.3827297,70.1462809 48.6485766,70.5172323 C52.7121224,70.5995792 65.0028788,70.7960798 65.1669046,70.1126357 L66.0732008,66.3471906 C66.1539562,66.3183341 66.2351948,66.29022 66.3159588,66.2608767 C66.2819165,66.1314662 66.2378809,66.0019539 66.1864879,65.915621 C66.0366676,65.6639416 65.8180258,65.435536 65.5553173,65.3060289 C65.1138405,65.0883952 64.5898943,65.1228379 64.0987697,65.090244 C63.6347202,65.0594472 63.2215544,65.0388873 62.7824823,65.0416925 Z M65.005066,66.0558811 C65.4921217,66.0639774 65.8869716,66.1381193 65.8843891,66.3795583 C65.8788305,66.8992994 64.762018,66.873766 64.2498191,66.924415 C60.9462295,67.2510873 59.7876911,67.1955202 57.555095,67.2049353 C57.1261666,67.2067479 56.2711754,67.1617783 56.2711754,67.1617783 C56.2711754,67.1617783 58.4164442,66.6526107 60.3225354,66.4227153 C61.4308217,66.2890444 62.5117397,66.1508644 63.5754915,66.1152219 C63.9403906,66.1029999 64.5180103,66.0477918 65.005066,66.0558811 Z M62.474989,68.1274154 C62.8721055,68.1198198 63.2695898,68.1322317 63.6618055,68.1867562 C63.9719746,68.2298804 64.3219327,68.245467 64.5627071,68.445698 C64.6701904,68.5350795 64.7949088,68.7264997 64.7515188,68.8179268 C64.6633629,69.0036778 64.3313581,69.0125285 63.6240431,69.0606847 C62.7759535,69.1184253 61.9488918,69.1867152 61.11015,69.2117341 C59.0305453,69.2737662 54.868574,69.2009449 54.868574,69.2009449 C54.868574,69.2009449 56.1665853,68.8561898 56.8268213,68.7370075 C58.2996286,68.4711433 59.7889513,68.2780073 61.2827778,68.1867562 C61.67803,68.1626125 62.0778724,68.1350127 62.474989,68.1274154 Z" id="path3051" fill="#3071A9" fill-rule="nonzero"></path>
        </g>
    </g>
</svg>