<?xml version="1.0" encoding="UTF-8" standalone="no"?>
<svg
   xmlns:dc="http://purl.org/dc/elements/1.1/"
   xmlns:cc="http://creativecommons.org/ns#"
   xmlns:rdf="http://www.w3.org/1999/02/22-rdf-syntax-ns#"
   xmlns:svg="http://www.w3.org/2000/svg"
   xmlns="http://www.w3.org/2000/svg"
   xmlns:sodipodi="http://sodipodi.sourceforge.net/DTD/sodipodi-0.dtd"
   xmlns:inkscape="http://www.inkscape.org/namespaces/inkscape"
   width="75pt"
   height="117pt"
   viewBox="0 0 75 117"
   version="1.1"
   id="svg3201"
   inkscape:version="0.48.4 r9939"
   sodipodi:docname="icon.svg">
  <metadata
     id="metadata3221">
    <rdf:RDF>
      <cc:Work
         rdf:about="">
        <dc:format>image/svg+xml</dc:format>
        <dc:type
           rdf:resource="http://purl.org/dc/dcmitype/StillImage" />
      </cc:Work>
    </rdf:RDF>
  </metadata>
  <defs
     id="defs3219" />
  <sodipodi:namedview
     pagecolor="#ffffff"
     bordercolor="#666666"
     borderopacity="1"
     objecttolerance="10"
     gridtolerance="10"
     guidetolerance="10"
     inkscape:pageopacity="0"
     inkscape:pageshadow="2"
     inkscape:window-width="1236"
     inkscape:window-height="847"
     id="namedview3217"
     showgrid="false"
     inkscape:zoom="4.5641627"
     inkscape:cx="35.369926"
     inkscape:cy="80.60281"
     inkscape:window-x="397"
     inkscape:window-y="78"
     inkscape:window-maximized="0"
     inkscape:current-layer="layer1" />
  <path
     d="m 0,0.04322 76.8,0 0,76.8 -76.8,0 0,-76.8 z"
     id="path3203"
     style="opacity:0;fill:#fffffe;fill-opacity:0.94977172"
     inkscape:connector-curvature="0" />
  <path
     d="M 13.76256,3.6403482 C 20.992,-0.05524154 33.024,1.9665021 36.42368,7.4934765 40.37632,12.889169 34.816,19.735528 25.77408,20.917066 c 0,1.732924 0.01024,3.459282 0,5.185642 4.6592,0.708923 8.87808,2.258051 12.05248,4.56205 2.21184,-0.892717 4.526079,-1.700102 6.72768,-2.605948 -0.59392,-3.209847 -0.59392,-6.833231 3.10272,-9.340718 5.77536,-4.719589 18.51392,-4.476718 23.72608,0.531692 4.751359,4.076308 3.266559,10.450051 -3.21536,13.403898 -6.03136,3.012923 -15.28832,2.271179 -20.41856,-1.266872 -2.16064,0.833641 -4.43392,1.549128 -6.52288,2.454975 -0.307201,1.122461 0.45056,2.251486 0.6144,3.373948 0.70656,1.956103 -0.78848,3.859693 -0.68608,5.809231 2.11968,0.951795 4.47488,1.68041 6.79936,2.415589 6.36928,-4.653948 19.445759,-3.918768 24.10496,1.575386 5.12,5.087179 0.62464,12.668717 -8.52992,14.211281 -6.85056,1.273436 -14.7968,-0.794256 -17.84832,-4.988717 -1.81248,-2.23836 -1.69984,-4.857437 -0.8704,-7.259898 -2.29376,-0.951795 -4.67968,-1.805128 -6.97344,-2.756923 -3.16416,2.284307 -7.34208,3.885949 -12.01152,4.516102 -0.06144,1.746051 -0.04096,3.498667 -0.0512,5.251283 4.78208,0.728615 8.98048,2.921025 10.81344,5.868307 2.75456,4.299487 0.07168,9.872411 -6.51264,12.025436 -6.2464,2.422154 -15.06304,1.234052 -19.33312,-2.546872 -4.89472,-3.846564 -3.84,-10.095589 2.17088,-13.213539 1.91488,-1.102768 4.41344,-1.634461 6.78912,-2.19241 0.03072,-1.68041 0.04096,-3.367384 0.07168,-5.047794 C 14.98112,50.009169 10.21952,48.597887 7.26016,45.919734 1.44384,41.180451 2.2528,33.671118 9.20576,29.581682 c 2.78528,-1.93641 6.77888,-2.776616 10.567679,-3.577436 -0.03072,-1.68041 -0.04096,-3.360821 -0.07168,-5.034667 C 15.59552,20.181887 11.60192,18.678708 9.5641599,16.164655 5.82656,12.081784 7.69024,6.3644508 13.76256,3.6403482 z"
     id="path3205"
     inkscape:connector-curvature="0"
     style="fill:#201f1f" />
  <path
     d="M 18.95424,7.4869124 C 23.58272,5.3338867 30.53568,8.2614765 29.85984,11.799528 29.48096,14.924041 23.5008,17.182092 19.2,15.462297 14.42816,13.926297 14.27456,9.1410662 18.95424,7.4869124 z"
     id="path3207"
     inkscape:connector-curvature="0"
     style="fill:#fffffe" />
  <path
     d="m 55.76704,20.844861 c 4.51584,-1.673846 10.91584,0.761436 10.56768,4.135384 0.235519,3.649642 -7.33184,5.96677 -11.64288,3.557744 -4.106241,-1.897025 -3.38944,-6.255589 1.0752,-7.693128 z"
     id="path3209"
     inkscape:connector-curvature="0"
     style="fill:#fffffe" />
  <path
     d="m 18.78016,32.305784 c 7.311359,-2.303999 16.35328,2.829129 13.8752,7.75877 -1.44384,4.555487 -11.17184,6.721641 -16.5376,3.472409 -6.05184,-2.894768 -4.352,-9.570461 2.6624,-11.231179 z"
     id="path3211"
     inkscape:connector-curvature="0"
     style="fill:#fffffe" />
  <path
     d="m 54.69184,48.348451 c 4.66944,-2.619077 12.759039,0.347897 11.601919,4.253538 -0.409599,3.629949 -8.345599,5.218462 -12.103679,2.651898 -3.2256,-1.772308 -2.8672,-5.303795 0.50176,-6.905436 z"
     id="path3213"
     inkscape:connector-curvature="0"
     style="fill:#fffffe" />
  <path
     d="m 20.67456,61.030297 c 5.10976,-1.13559 10.78272,2.566565 8.82688,5.809231 -1.269761,3.190153 -8.48896,4.483282 -11.84768,1.857641 -4.06528,-2.19241 -2.03776,-6.872615 3.0208,-7.666872 z"
     id="path3215"
     inkscape:connector-curvature="0"
     style="fill:#fffffe" />
  <g
     inkscape:groupmode="layer"
     id="layer1"
     inkscape:label="Alpha"
     style="opacity:1" />
</svg>
