<?xml version="1.0" encoding="UTF-8" standalone="no"?>
<svg xmlns="http://www.w3.org/2000/svg" height="100px" width="100px" version="1.1" xmlns:xlink="http://www.w3.org/1999/xlink" viewBox="0 0 100 100"><!-- Generator: Sketch 43.2 (39069) - http://www.bohemiancoding.com/sketch -->
 <title>kafka</title>
 <desc>Created with Sketch.</desc>
 <g id="Page-1" fill-rule="evenodd" fill="none">
  <g id="kafka">
   <path id="path4784" fill-rule="nonzero" fill="#fff" d="m50 1.1369e-13c-27.614-1.69e-15 -50 22.386-50 50-3.3818e-15 27.614 22.386 50 50 50 13.261 0 25.979-5.268 35.355-14.645 9.377-9.376 14.645-22.094 14.645-35.355 0-27.614-22.386-50-50-50z"/>
   <g id="kafta" fill="#000" transform="translate(27 13)">
    <path id="Combined-Shape" d="m13.333 20c-5.5225 0-9.9997-4.477-9.9997-10 0-5.5228 4.4772-10 9.9997-10 5.523 0 10 4.4772 10 10 0 5.523-4.477 10-10 10zm0.278-5c2.608 0 4.722-2.114 4.722-4.722 0-2.6082-2.114-4.7224-4.722-4.7224s-4.7221 2.1142-4.7221 4.7224c0 2.608 2.1141 4.722 4.7221 4.722z"/>
    <rect id="Rectangle" y="18.889" x="11.111" height="6.6667" width="4.4444"/>
    <rect id="Rectangle-Copy" y="49.444" x="11.111" height="6.6667" width="4.4444"/>
    <rect id="Rectangle-Copy-2" transform="translate(26.776 29.702) rotate(60) translate(-26.776 -29.702)" height="6.6667" width="4.4444" y="26.369" x="24.553"/>
    <rect id="Rectangle-Copy-3" transform="translate(26.22 45.258) scale(1 -1) rotate(60) translate(-26.22 -45.258)" height="6.6667" width="4.4444" y="41.925" x="23.998"/>
    <path id="Combined-Shape-Copy-4" d="m12.778 50c-7.0572 0-12.778-5.721-12.778-12.778s5.7208-12.778 12.778-12.778c7.057 0 12.778 5.721 12.778 12.778s-5.721 12.778-12.778 12.778zm0.355-6.389c3.332 0 6.034-2.701 6.034-6.034 0-3.332-2.702-6.034-6.034-6.034-3.3327 0-6.0342 2.702-6.0342 6.034 0 3.333 2.7015 6.034 6.0342 6.034z"/>
    <path id="Combined-Shape-Copy" d="m13.333 75c-5.5225 0-9.9997-4.477-9.9997-10s4.4772-10 9.9997-10c5.523 0 10 4.477 10 10s-4.477 10-10 10zm0.278-5c2.608 0 4.722-2.114 4.722-4.722s-2.114-4.722-4.722-4.722-4.7221 2.114-4.7221 4.722 2.1141 4.722 4.7221 4.722z"/>
    <path id="Combined-Shape-Copy-2" d="m36.667 33.889c-5.523 0-10-4.477-10-10s4.477-10 10-10 10 4.477 10 10-4.477 10-10 10zm0.277-5c2.608 0 4.723-2.114 4.723-4.722s-2.115-4.723-4.723-4.723-4.722 2.115-4.722 4.723 2.114 4.722 4.722 4.722z"/>
    <path id="Combined-Shape-Copy-3" d="m36.667 61.111c-5.523 0-10-4.477-10-10s4.477-10 10-10 10 4.477 10 10-4.477 10-10 10zm0.277-5c2.608 0 4.723-2.114 4.723-4.722s-2.115-4.722-4.723-4.722-4.722 2.114-4.722 4.722 2.114 4.722 4.722 4.722z"/>
   </g>
  </g>
 </g>
</svg>
