<?xml version="1.0" encoding="UTF-8" standalone="no"?>
<svg xmlns="http://www.w3.org/2000/svg" height="100px" width="100px" version="1.1" xmlns:xlink="http://www.w3.org/1999/xlink" viewBox="0 0 100 100"><!-- Generator: Sketch 43.2 (39069) - http://www.bohemiancoding.com/sketch -->
 <title>spark</title>
 <desc>Created with Sketch.</desc>
 <g id="Page-1" fill-rule="evenodd" fill="none">
  <g id="spark">
   <g id="sprak">
    <path id="path4784" fill-rule="nonzero" fill="#E77215" d="m50 1.1369e-13c-27.614-1.69e-15 -50 22.386-50 50-3.3818e-15 27.614 22.386 50 50 50 13.261 0 25.979-5.268 35.355-14.645 9.377-9.376 14.645-22.094 14.645-35.355 0-27.614-22.386-50-50-50z"/>
    <path id="path3254" fill="#fff" d="m55.063 59.209c3.581 0.948 7.109 1.881 10.96 2.9-2.103-4.015-3.922-7.714-5.971-11.281-0.783-1.364-0.638-2.171 0.351-3.286 3.086-3.484 6.06-7.066 9.545-11.159-4.737 1.235-8.827 2.177-12.832 3.399-2.066 0.631-3.245 0.361-4.316-1.675-1.751-3.328-3.847-6.474-6.123-10.235-0.854 4.748-1.779 8.84-2.26 12.985-0.258 2.23-1.296 3.02-3.246 3.567-4.041 1.136-8.021 2.493-12.759 3.991 4.239 1.713 7.803 3.152 11.873 4.796-2.768 1.793-5.198 3.388-7.658 4.933-0.311 0.195-0.865 0.306-1.167 0.162-3.724-1.776-7.856-2.799-11.135-5.376-3.742-2.941-3.154-7.185 1.339-8.977 4.516-1.801 9.219-3.148 13.888-4.532 1.866-0.555 2.76-1.465 3.021-3.456 0.493-3.785 1.237-7.539 1.977-11.287 0.243-1.229 0.639-2.481 1.233-3.578 2.233-4.129 6.154-4.408 8.804-0.518 2.207 3.24 4.201 6.637 6.097 10.071 0.953 1.727 1.981 2.052 3.824 1.516 4.582-1.335 9.224-2.466 13.847-3.659 2.142-0.553 4.41-0.799 5.781 1.287 1.5 2.281 0.056 4.269-1.399 6.012-3.268 3.914-6.557 7.814-9.935 11.632-1.12 1.267-1.438 2.194-0.468 3.823 2.11 3.546 3.905 7.281 5.815 10.945 1.165 2.231 1.485 4.472-0.329 6.521-1.732 1.956-3.941 2.362-6.39 1.642-1.833-0.54-3.658-1.109-5.486-1.664-6.698-2.032-6.698-2.031-6.881-9.499z"/>
   </g>
  </g>
 </g>
</svg>
