<?xml version="1.0" encoding="UTF-8" standalone="no"?>
<svg xmlns="http://www.w3.org/2000/svg" height="100px" width="100px" version="1.1" xmlns:xlink="http://www.w3.org/1999/xlink" viewBox="0 0 100 100"><!-- Generator: Sketch 43.2 (39069) - http://www.bohemiancoding.com/sketch -->
 <title>hbase</title>
 <desc>Created with Sketch.</desc>
 <defs>
  <circle id="path-1" cy="50" cx="50" r="50"/>
 </defs>
 <g id="Page-1" fill-rule="evenodd" fill="none">
  <g id="hbase">
   <g id="orca">
    <mask id="mask-2" fill="white">
     <use xlink:href="#path-1"/>
    </mask>
    <use id="Oval-Copy" xlink:href="#path-1" transform="translate(50 50) rotate(180) translate(-50 -50)" fill="#FFFFFF"/>
    <g id="Orca" fill="#000" mask="url(#mask-2)" fill-rule="nonzero">
     <g id="Shape" transform="translate(15 23)">
      <path d="m40.531 32.873c1.61 0-0.49 5.624-7.367 8.355s-11.9 0.975-12.973 0.732c-1.072-0.243-0.519-1.35 0.878-2.049 3.123-1.555 3.853-6.829 8.291-6.973 4.438-0.143 9.562-0.065 11.171-0.065m21.895-4.475c0.211 0.32 7.469 0.968 7.43 9.392 0 0.908-0.505 1.678-0.967 0.459s-1.536-1.096-2.268-1.683c-0.732-0.586-0.732-0.706-3.463-0.561-2.731 0.146-2.557-1.683-2.829-1.951-0.218 0.585-0.097 2.415-1.73 2.078-1.634-0.338-1.293 1.072-1.829 0.536-0.535-0.535-0.585 0.609-1.072 0.464s-1.146 0.487-1.119 1.024-0.463 1.22-0.877 0.553c-3.283-5.274 3.706-6.941 3.219-9.624 1.118 0.846 2.876 2.672 3.73 3.765 0.479 0.624 0.844 0.175 0.593-0.159-3.953-5.198-9.056-7.582-13.697-7.561-5.812 0.025-10.642 5.135-12.967 6.976-0.689 0.545-2.859 0.121-5.525 0.339-4.937 0.402-5.225 5.245-8.68 7.204-1.804 1.023-1.697 2.373-0.845 2.731s2.819 0.755 3.645 0.867c-4.341 4.975-10.548 6.982-12.327 8.206-2.1939 1.512-4.1916 3.503-6.9245 3.516-1.6589 0-1.8539-1.072-1.8539-1.072-0.4794-0.104-1.5198-1.26-1.3568-2.3s-0.98289-3.65-0.39796-7.42c0.78306-5.041 3.7877-11.331 6.129-15.232 2.3573-3.929 7.8312-10.889 8.3392-11.558 1.582-2.091-2.877-14.338 2.958-17.087 0.83-0.3895 1.186-0.01553 1.186 0.52146 0 0.53694 0.655 11.165 5.413 10.779 2.194-0.179 12.453-2.4057 21.428 1.235 7.386 2.997 13.392 10.548 16.663 15.574m-44.889 7.277c-3.764 0.132-6.118 3.495-6.145 6.047-0.032 3.056 2.21 0.716 4.551-0.748s1.886-3.869 2.113-4.032 1.012-1.322-0.519-1.267m-5.81 8.583c-0.452 0.368-0.673 0.844-0.495 1.065 0.177 0.22 0.69 0.102 1.142-0.264 0.453-0.366 0.675-0.844 0.496-1.064-0.179-0.221-0.691-0.103-1.143 0.263m9.672-0.289c-1.438-0.129-2.627-0.673-3.602-1.234s-1.648 1.838-3.676 3.804c-2.178 2.113-5.1618 2.853-6.5666 4.902-1.1699 1.706-2.7521 2.114-3.6247 2.478-0.3772 0.16-0.2205 0.299-0.0575 0.32 1.1427 0.171 3.1148-0.742 5.3906-2.535 2.6022-2.049 9.4392-4.618 12.138-7.74m24.931-20.709c-1.328 0-0.754-0.844-0.226-1.008 2.654-0.825 6.371 0.032 8.858 1.56-1.17-2-5.705-5.115-12.24-3.609-6.535 1.505-7.315 8.291-10.436 11.412h1.652c1.825-1.903 4.847-4.685 7.555-6.007 2.237-1.093 5.979-2.137 11.826-0.138-1.633-2.096-4.863-2.216-6.998-2.21m21.459 12.72c0.358 0.553 0.703 0.16 0.439-0.593-0.305-0.869-1.199-4.13-5.479-5.462-3.675-1.146-3.055-0.472-2.373 0.569 0.357 0.541 1.664 1.724 1.758 2.529 0.088 0.739-0.769 0.977-1.355 0.654-0.841-0.463-2.004-2.284-3.308-3.294-0.274 1.426-3.9 4.315-3.719 5.792 0.121 1.001 0.84 0.537 1.011 0.134 0.16-0.369 0.571-0.812 1.062-0.799 1.535 0.024 3.407-0.222 3.835-1.293 0.46-1.134 0.98-0.402 1.146 0 0.48 1.146 1.862 0.774 3.983 0.735 2.284-0.041 2.64 0.491 2.992 1.033m-65.206-0.561c0.6185-1.691 2.5363-5.626 4.1936-7.868-1.106 0.098-1.6222-2.889-2.5843-2.015-2.5107 2.276-3.0237 7.006-1.6093 9.885"/>
     </g>
    </g>
   </g>
  </g>
 </g>
</svg>
